<svg width="220" height="65" viewBox="0 0 220 65" version="1.1" xmlns="http://www.w3.org/2000/svg" xmlns:xlink="http://www.w3.org/1999/xlink">
<title>Group 2</title>
<desc>Created using Figma</desc>
<g id="Canvas" transform="translate(-2572 255)">
<g id="Group 2">
<g id="Group">
<g id="Vector">
<use xlink:href="#path0_fill" transform="translate(2654 -239.947)" fill="#00A651"/>
</g>
<g id="Vector">
<use xlink:href="#path1_fill" transform="translate(2675.03 -234.582)" fill="#00A651"/>
</g>
<g id="Vector">
<use xlink:href="#path2_fill" transform="translate(2699.95 -234.582)" fill="#00A651"/>
</g>
<g id="Vector">
<use xlink:href="#path3_fill" transform="translate(2716.42 -240.125)" fill="#00A651"/>
</g>
<g id="Vector">
<use xlink:href="#path4_fill" transform="translate(2725.27 -239.949)" fill="#267DBF"/>
</g>
<g id="Vector">
<use xlink:href="#path5_fill" transform="translate(2740.28 -234.283)" fill="#267DBF"/>
</g>
<g id="Vector">
<use xlink:href="#path6_fill" transform="translate(2762.56 -240.125)" fill="#267DBF"/>
</g>
<g id="Vector">
<use xlink:href="#path7_fill" transform="translate(2770.9 -240.72)" fill="#267DBF"/>
</g>
<g id="Vector">
<use xlink:href="#path8_fill" transform="translate(2781.7 -238.816)" fill="#267DBF"/>
</g>
</g>
<g id="Group">
<g id="Vector">
<use xlink:href="#path9_fill" transform="translate(2625.48 -241.169)" fill="url(#paint9_linear)"/>
</g>
<g id="Vector">
<use xlink:href="#path10_fill" transform="translate(2616.21 -205.685)" fill="url(#paint10_linear)"/>
</g>
<g id="Vector">
<use xlink:href="#path11_fill" transform="translate(2572 -255)" fill="#00A651"/>
</g>
<g id="Vector">
<use xlink:href="#path12_fill" transform="translate(2572.07 -248.311)" fill="url(#paint12_linear)"/>
</g>
</g>
</g>
</g>
<defs>
<linearGradient id="paint9_linear" x1="0" y1="0" x2="1" y2="0" gradientUnits="userSpaceOnUse" gradientTransform="matrix(-10.3681 3.9209 -3.85498 -10.5454 13.5582 10.2466)">
<stop offset="0" stop-color="#27AAE1"/>
<stop offset="0.4938" stop-color="#2677BA"/>
<stop offset="1" stop-color="#243E8F"/>
</linearGradient>
<linearGradient id="paint10_linear" x1="0" y1="0" x2="1" y2="0" gradientUnits="userSpaceOnUse" gradientTransform="matrix(10.3706 -3.92184 3.85591 10.5479 -3.56621 5.39369)">
<stop offset="0" stop-color="#27AAE1"/>
<stop offset="0.2971" stop-color="#2680C1"/>
<stop offset="0.5974" stop-color="#255CA6"/>
<stop offset="0.8425" stop-color="#244695"/>
<stop offset="1" stop-color="#243E8F"/>
</linearGradient>
<linearGradient id="paint12_linear" x1="0" y1="0" x2="1" y2="0" gradientUnits="userSpaceOnUse" gradientTransform="matrix(34.7608 0 0 35.3552 -0.000276159 0.125273)">
<stop offset="0" stop-color="#27AAE1"/>
<stop offset="0.4938" stop-color="#2677BA"/>
<stop offset="1" stop-color="#243E8F"/>
</linearGradient>
<path id="path0_fill" d="M 1.21308e-06 9.98432C 1.21308e-06 2.89254 3.25155 3.70378e-06 9.4009 3.70378e-06C 15.5204 3.70378e-06 18.7998 2.89254 18.7998 9.98432C 18.7998 16.7201 15.5224 19.7906 9.4009 19.7906C 3.25155 19.7886 1.21308e-06 16.7201 1.21308e-06 9.98432ZM 13.9722 9.98432C 13.9722 5.69405 12.565 4.11428 9.4029 4.11428C 6.21295 4.11428 4.80579 5.69405 4.80579 9.98432C 4.80579 13.9186 6.21295 15.7067 9.4029 15.7067C 12.565 15.7067 13.9722 13.9186 13.9722 9.98432Z"/>
<path id="path1_fill" d="M 7.03585e-06 0.299362L 4.36258 0.299362L 4.50965 1.55145C 5.76576 0.627055 7.31998 4.56799e-06 9.13457 4.56799e-06C 11.0088 4.56799e-06 11.9767 0.596711 12.561 1.64045C 13.8489 0.687735 15.4032 4.56799e-06 17.5994 4.56799e-06C 20.8211 4.56799e-06 22.3117 1.69911 22.3117 5.18432L 22.3117 14.4222L 17.655 14.4222L 17.655 5.75069C 17.655 4.19923 17.0389 3.54387 15.6059 3.54387C 14.6976 3.54387 13.7913 3.93223 13.207 4.61795C 13.2924 5.06498 13.2924 5.42099 13.2924 5.95904L 13.2924 14.4222L 8.90204 14.4222L 8.90204 5.69001C 8.90204 4.26194 8.52043 3.54387 7.14309 3.54387C 6.17716 3.54387 5.29869 4.14057 4.5971 4.82629L 4.5971 14.4222L 7.03585e-06 14.4222L 7.03585e-06 0.299362Z"/>
<path id="path2_fill" d="M -6.308e-06 0.299362L 4.3924 0.299362L 4.53947 1.52111C 5.65247 0.71808 7.46706 4.56799e-06 9.42674 4.56799e-06C 13.0023 4.56799e-06 14.5843 1.72744 14.5843 5.36435L 14.5843 14.4243L 9.86797 14.4243L 9.86797 5.75271C 9.86797 4.17294 9.28364 3.54589 7.58432 3.54589C 6.56076 3.54589 5.41794 4.08393 4.71833 4.79797L 4.71833 14.4243L 0.00198011 14.4243L 0.00198011 0.299362L -6.308e-06 0.299362Z"/>
<path id="path3_fill" d="M 2.04713 9.38963L -3.39662e-06 9.38963L 0.407439 5.84171L 6.76348 5.84171L 6.76348 19.9666L 2.04713 19.9666L 2.04713 9.38963ZM 1.66554 -6.54334e-06L 6.78733 -6.54334e-06L 6.78733 3.60455L 1.66554 3.60455L 1.66554 -6.54334e-06Z"/>
<path id="path4_fill" d="M 0.292161 18.6882L 0.292161 14.6043C 2.02129 15.381 4.24334 15.8867 6.12153 15.8867C 8.4648 15.8867 9.60761 15.6177 9.60761 14.129C 9.60761 12.6382 8.46478 12.2801 5.21521 11.3274C 1.34752 10.1643 6.79323e-06 8.70189 6.79323e-06 5.66371C 6.79323e-06 1.99645 2.6076 4.81491e-06 7.64394 4.81491e-06C 9.81032 4.81491e-06 12.0661 0.388362 13.354 0.835391L 13.354 4.94766C 11.6567 4.25993 9.92759 3.9646 8.34753 3.9646C 6.23878 3.9646 4.80379 4.20328 4.80379 5.63337C 4.80379 6.88546 5.71009 7.21314 8.72713 8.0182C 13.354 9.30063 14.4372 11.2647 14.4372 14.129C 14.4372 17.5272 11.8893 19.7906 6.59057 19.7906C 4.10022 19.7906 1.84838 19.4063 0.292161 18.6882Z"/>
<path id="path5_fill" d="M -7.7637e-06 -5.55566e-06L 4.62691 -5.55566e-06L 6.49915 8.10518L 8.46281 1.93779L 8.46281 -5.55566e-06L 12.0045 -5.55566e-06L 14.2882 8.10518L 16.1047 -5.55566e-06L 20.7297 -5.55566e-06L 17.0707 14.1249L 12.7956 14.1249L 10.4245 6.79443L 7.99178 14.1249L 3.659 14.1249L -7.7637e-06 -5.55566e-06Z"/>
<path id="path6_fill" d="M 2.04911 9.38963L 5.58016e-06 9.38963L 0.407448 5.84171L 6.75952 5.84171L 6.75952 19.9666L 2.04911 19.9666L 2.04911 9.38963ZM 1.66553 -6.54334e-06L 6.78933 -6.54334e-06L 6.78933 3.60455L 1.66553 3.60455L 1.66553 -6.54334e-06Z"/>
<path id="path7_fill" d="M 1.84441 10.0733L -1.01899e-05 10.0733L -1.01899e-05 6.4364L 1.84441 6.4364L 1.84441 5.27534C 1.84441 2.2048 3.56956 -3.95069e-06 6.96621 -3.95069e-06C 8.37336 -3.95069e-06 9.42675 0.238692 10.3947 0.627061L 10.3947 3.84728C 9.81034 3.63691 9.27967 3.5196 8.63771 3.5196C 7.11329 3.5196 6.55877 4.05562 6.55877 5.36636L 6.55877 6.43842L 9.98723 6.43842L 9.78052 10.0753L 6.55877 10.0753L 6.55877 20.5653L 1.84441 20.5653L 1.84441 10.0733Z"/>
<path id="path8_fill" d="M 1.87222 13.6233L 1.87222 7.87054L -1.28586e-05 7.87054L -1.28586e-05 4.23363L 1.87222 4.23363L 1.87222 1.28243L 6.58858 -1.23459e-07L 6.58858 4.23363L 9.95541 4.23363L 9.74873 7.87054L 6.5866 7.87054L 6.5866 13.2935C 6.5866 14.667 7.22857 15.112 8.57808 15.112C 9.16042 15.112 9.69108 15.021 10.3032 14.8126L 10.3032 18.0632C 9.3373 18.4799 8.28194 18.6579 6.87677 18.6579C 3.42646 18.6579 1.87222 16.7525 1.87222 13.6233Z"/>
<path id="path9_fill" d="M 2.58755 0.71531C 0.0606967 1.67124 -0.615895 3.75538 0.559621 6.96959L 3.72901 15.6394C 2.55257 12.4243 3.23009 10.342 5.75694 9.38516C 6.85237 8.9704 8.2488 8.74288 9.94994 8.70262L 9.99229 0.489668C 8.91159 0.230322 7.84102 0.0749021 6.77873 6.00026e-07L 6.78057 0.0337056C 5.08127 0.0749015 3.68298 0.301479 2.58755 0.71531Z"/>
<path id="path10_fill" d="M 7.40657 14.9241C 9.93342 13.9682 10.61 11.8841 9.43634 8.66986L 6.26696 -1.54292e-06C 7.44064 3.21515 6.76405 5.29741 4.2372 6.25428C 3.14269 6.66811 1.7444 6.89656 0.0441797 6.93682L 4.49477e-06 15.1488C 1.08255 15.4091 2.15219 15.5655 3.21264 15.6394L 3.21264 15.6048C 4.91194 15.5664 6.3093 15.3389 7.40657 14.9241Z"/>
<path id="path11_fill" d="M 64.0431 51.0108C 63.9915 49.0193 63.5579 46.9071 62.7414 44.6769L 60.9197 39.6913L 60.939 39.6838L 58.4775 32.9445L 57.2063 29.4691L 54.0369 20.7992C 52.8614 17.585 53.538 15.5018 56.0648 14.5449C 57.1603 14.1311 58.5585 13.9036 60.2578 13.8624L 60.256 13.8287C 57.627 13.6443 55.0532 14.016 52.5383 14.9672C 50.5674 15.7125 48.9096 16.7115 47.5582 17.9651C 47.4864 18.0325 47.4183 18.1028 47.3483 18.1702C 44.607 7.70737 35.2287 1.20005e-06 24.0792 1.20005e-06C 10.7812 1.20005e-06 -2.41594e-06 10.9637 -2.41594e-06 24.4909C -2.41594e-06 38.0163 10.7812 48.9809 24.0792 48.9809C 33.4198 48.9809 41.5168 43.573 45.51 35.6672L 46.7629 39.0921L 46.7435 39.0995L 49.2078 45.8379L 50.479 49.3142L 53.6484 57.9841C 54.8221 61.1983 54.1455 63.2815 51.6187 64.2384C 50.5223 64.6522 49.124 64.8807 47.4247 64.92L 47.4247 64.9546C 50.0547 65.1381 52.6285 64.7664 55.1461 63.8152C 57.1142 63.0699 58.7749 62.0718 60.1262 60.8182C 61.4757 59.5655 62.48 58.1161 63.1363 56.4683C 63.7917 54.8232 64.0937 53.0041 64.0431 51.0108ZM 34.8301 27.4589C 33.441 35.8778 26.247 42.295 17.5738 42.295C 7.90643 42.295 0.0690415 34.3246 0.0690415 24.4919C 0.0690415 14.6592 7.90643 6.68777 17.5738 6.68777C 26.247 6.68777 33.441 13.105 34.8301 21.523C 35.0823 22.4705 35.2185 23.4638 35.2185 24.4919C 35.2185 25.519 35.0832 26.5133 34.8301 27.4589Z"/>
<path id="path12_fill" d="M 24.0083 29.1348C 17.8546 29.1348 12.8672 24.0612 12.8672 17.8032C 12.8672 11.5442 17.8546 6.47056 24.0083 6.47056C 29.1522 6.47056 33.4778 10.0171 34.761 14.8352C 33.3719 6.41719 26.178 -1.42863e-06 17.5048 -1.42863e-06C 7.83739 -1.42863e-06 1.29225e-06 7.9714 1.29225e-06 17.8041C 1.29225e-06 27.6368 7.83739 35.6073 17.5048 35.6073C 26.178 35.6073 33.3719 29.1901 34.761 20.7711C 33.4778 25.5892 29.1522 29.1348 24.0083 29.1348Z"/>
</defs>
</svg>
